<?xml version="1.0" standalone="no"?>
<!DOCTYPE svg PUBLIC "-//W3C//DTD SVG 1.1//EN" "http://www.w3.org/Graphics/SVG/1.1/DTD/svg11.dtd">
<svg xmlns="http://www.w3.org/2000/svg" xmlns:xlink="http://www.w3.org/1999/xlink" width="375" zoomAndPan="magnify" viewBox="0 0 375 374.999991" height="375" preserveAspectRatio="xMidYMid meet" version="1.0"><defs><g/><clipPath id="c6b90ea666"><path d="M 255.425781 136.046875 L 340.332031 136.046875 L 340.332031 220.953125 L 255.425781 220.953125 Z M 255.425781 136.046875 " clip-rule="nonzero"/></clipPath><clipPath id="637b3dde58"><path d="M 297.878906 136.046875 C 274.433594 136.046875 255.425781 155.054688 255.425781 178.5 C 255.425781 201.945312 274.433594 220.953125 297.878906 220.953125 C 321.324219 220.953125 340.332031 201.945312 340.332031 178.5 C 340.332031 155.054688 321.324219 136.046875 297.878906 136.046875 " clip-rule="nonzero"/></clipPath><clipPath id="2246e66bd4"><path d="M 181.839844 136.046875 L 266.746094 136.046875 L 266.746094 220.953125 L 181.839844 220.953125 Z M 181.839844 136.046875 " clip-rule="nonzero"/></clipPath><clipPath id="0696c8bc50"><path d="M 224.292969 136.046875 C 200.847656 136.046875 181.839844 155.054688 181.839844 178.5 C 181.839844 201.945312 200.847656 220.953125 224.292969 220.953125 C 247.738281 220.953125 266.746094 201.945312 266.746094 178.5 C 266.746094 155.054688 247.738281 136.046875 224.292969 136.046875 " clip-rule="nonzero"/></clipPath><clipPath id="1cd9903327"><path d="M 108.253906 136.046875 L 193.160156 136.046875 L 193.160156 220.953125 L 108.253906 220.953125 Z M 108.253906 136.046875 " clip-rule="nonzero"/></clipPath><clipPath id="b0cd7e9b51"><path d="M 150.707031 136.046875 C 127.261719 136.046875 108.253906 155.054688 108.253906 178.5 C 108.253906 201.945312 127.261719 220.953125 150.707031 220.953125 C 174.152344 220.953125 193.160156 201.945312 193.160156 178.5 C 193.160156 155.054688 174.152344 136.046875 150.707031 136.046875 " clip-rule="nonzero"/></clipPath><clipPath id="7df79d66c4"><path d="M 34.667969 136.046875 L 119.574219 136.046875 L 119.574219 220.953125 L 34.667969 220.953125 Z M 34.667969 136.046875 " clip-rule="nonzero"/></clipPath><clipPath id="8768a3b743"><path d="M 77.121094 136.046875 C 53.675781 136.046875 34.667969 155.054688 34.667969 178.5 C 34.667969 201.945312 53.675781 220.953125 77.121094 220.953125 C 100.566406 220.953125 119.574219 201.945312 119.574219 178.5 C 119.574219 155.054688 100.566406 136.046875 77.121094 136.046875 " clip-rule="nonzero"/></clipPath></defs><g clip-path="url(#c6b90ea666)"><g clip-path="url(#637b3dde58)"><path fill="#d1cf11" d="M 255.425781 136.046875 L 340.332031 136.046875 L 340.332031 220.953125 L 255.425781 220.953125 Z M 255.425781 136.046875 " fill-opacity="1" fill-rule="nonzero"/></g></g><g clip-path="url(#2246e66bd4)"><g clip-path="url(#0696c8bc50)"><path fill="#4da4e0" d="M 181.839844 136.046875 L 266.746094 136.046875 L 266.746094 220.953125 L 181.839844 220.953125 Z M 181.839844 136.046875 " fill-opacity="1" fill-rule="nonzero"/></g></g><g clip-path="url(#1cd9903327)"><g clip-path="url(#b0cd7e9b51)"><path fill="#ee217f" d="M 108.253906 136.046875 L 193.160156 136.046875 L 193.160156 220.953125 L 108.253906 220.953125 Z M 108.253906 136.046875 " fill-opacity="1" fill-rule="nonzero"/></g></g><g clip-path="url(#7df79d66c4)"><g clip-path="url(#8768a3b743)"><path fill="#723fa3" d="M 34.667969 136.046875 L 119.574219 136.046875 L 119.574219 220.953125 L 34.667969 220.953125 Z M 34.667969 136.046875 " fill-opacity="1" fill-rule="nonzero"/></g></g><g fill="#000000" fill-opacity="1"><g transform="translate(58.923948, 194.148986)"><g><path d="M 17.875 -21.828125 C 19.375 -24.367188 20.800781 -26.90625 22.15625 -29.4375 C 23.507812 -31.96875 24.757812 -34.519531 25.90625 -37.09375 L 35.109375 -37.09375 C 33.078125 -33.09375 30.972656 -29.21875 28.796875 -25.46875 C 26.617188 -21.726562 24.316406 -17.96875 21.890625 -14.1875 L 21.890625 0 L 13.546875 0 L 13.546875 -14.078125 C 11.117188 -17.859375 8.804688 -21.640625 6.609375 -25.421875 C 4.410156 -29.203125 2.296875 -33.09375 0.265625 -37.09375 L 9.953125 -37.09375 C 11.097656 -34.519531 12.328125 -31.96875 13.640625 -29.4375 C 14.960938 -26.90625 16.375 -24.367188 17.875 -21.828125 Z M 17.875 -21.828125 "/></g></g></g><g fill="#000000" fill-opacity="1"><g transform="translate(126.101312, 194.148986)"><g><path d="M 14.125 -37.09375 C 14.769531 -35.914062 15.507812 -34.457031 16.34375 -32.71875 C 17.1875 -30.988281 18.0625 -29.113281 18.96875 -27.09375 C 19.882812 -25.082031 20.785156 -23.023438 21.671875 -20.921875 C 22.566406 -18.816406 23.40625 -16.835938 24.1875 -14.984375 C 24.96875 -16.835938 25.804688 -18.816406 26.703125 -20.921875 C 27.597656 -23.023438 28.5 -25.082031 29.40625 -27.09375 C 30.3125 -29.113281 31.179688 -30.988281 32.015625 -32.71875 C 32.859375 -34.457031 33.601562 -35.914062 34.25 -37.09375 L 41.84375 -37.09375 C 42.207031 -34.625 42.539062 -31.863281 42.84375 -28.8125 C 43.144531 -25.769531 43.410156 -22.597656 43.640625 -19.296875 C 43.867188 -15.992188 44.082031 -12.679688 44.28125 -9.359375 C 44.476562 -6.046875 44.648438 -2.925781 44.796875 0 L 36.65625 0 C 36.550781 -3.601562 36.410156 -7.523438 36.234375 -11.765625 C 36.054688 -16.015625 35.785156 -20.300781 35.421875 -24.625 C 34.785156 -23.125 34.070312 -21.460938 33.28125 -19.640625 C 32.5 -17.816406 31.722656 -15.992188 30.953125 -14.171875 C 30.191406 -12.359375 29.453125 -10.617188 28.734375 -8.953125 C 28.023438 -7.296875 27.421875 -5.878906 26.921875 -4.703125 L 21.078125 -4.703125 C 20.585938 -5.878906 19.984375 -7.296875 19.265625 -8.953125 C 18.554688 -10.617188 17.816406 -12.359375 17.046875 -14.171875 C 16.273438 -15.992188 15.5 -17.816406 14.71875 -19.640625 C 13.9375 -21.460938 13.222656 -23.125 12.578125 -24.625 C 12.222656 -20.300781 11.953125 -16.015625 11.765625 -11.765625 C 11.585938 -7.523438 11.445312 -3.601562 11.34375 0 L 3.21875 0 C 3.351562 -2.925781 3.519531 -6.046875 3.71875 -9.359375 C 3.914062 -12.679688 4.128906 -15.992188 4.359375 -19.296875 C 4.585938 -22.597656 4.851562 -25.769531 5.15625 -28.8125 C 5.46875 -31.863281 5.800781 -34.625 6.15625 -37.09375 Z M 14.125 -37.09375 "/></g></g></g><g fill="#000000" fill-opacity="1"><g transform="translate(208.782588, 194.148986)"><g><path d="M 14.390625 -6.375 C 15.566406 -6.375 16.539062 -6.46875 17.3125 -6.65625 C 18.082031 -6.851562 18.695312 -7.117188 19.15625 -7.453125 C 19.625 -7.796875 19.945312 -8.195312 20.125 -8.65625 C 20.300781 -9.125 20.390625 -9.644531 20.390625 -10.21875 C 20.390625 -11.4375 19.816406 -12.445312 18.671875 -13.25 C 17.535156 -14.050781 15.578125 -14.914062 12.796875 -15.84375 C 11.578125 -16.269531 10.359375 -16.757812 9.140625 -17.3125 C 7.929688 -17.863281 6.84375 -18.554688 5.875 -19.390625 C 4.914062 -20.234375 4.132812 -21.253906 3.53125 -22.453125 C 2.925781 -23.648438 2.625 -25.101562 2.625 -26.8125 C 2.625 -28.519531 2.941406 -30.0625 3.578125 -31.4375 C 4.222656 -32.8125 5.132812 -33.976562 6.3125 -34.9375 C 7.488281 -35.90625 8.914062 -36.644531 10.59375 -37.15625 C 12.269531 -37.675781 14.160156 -37.9375 16.265625 -37.9375 C 18.765625 -37.9375 20.921875 -37.671875 22.734375 -37.140625 C 24.554688 -36.609375 26.054688 -36.019531 27.234375 -35.375 L 24.828125 -28.796875 C 23.796875 -29.328125 22.644531 -29.796875 21.375 -30.203125 C 20.113281 -30.617188 18.585938 -30.828125 16.796875 -30.828125 C 14.804688 -30.828125 13.375 -30.550781 12.5 -30 C 11.625 -29.445312 11.1875 -28.597656 11.1875 -27.453125 C 11.1875 -26.773438 11.34375 -26.203125 11.65625 -25.734375 C 11.976562 -25.273438 12.4375 -24.859375 13.03125 -24.484375 C 13.625 -24.109375 14.300781 -23.769531 15.0625 -23.46875 C 15.832031 -23.164062 16.679688 -22.851562 17.609375 -22.53125 C 19.535156 -21.8125 21.210938 -21.101562 22.640625 -20.40625 C 24.066406 -19.71875 25.25 -18.910156 26.1875 -17.984375 C 27.132812 -17.054688 27.835938 -15.96875 28.296875 -14.71875 C 28.765625 -13.46875 29 -11.953125 29 -10.171875 C 29 -6.710938 27.785156 -4.023438 25.359375 -2.109375 C 22.941406 -0.203125 19.285156 0.75 14.390625 0.75 C 12.753906 0.75 11.273438 0.648438 9.953125 0.453125 C 8.628906 0.253906 7.457031 0.015625 6.4375 -0.265625 C 5.425781 -0.554688 4.554688 -0.859375 3.828125 -1.171875 C 3.097656 -1.492188 2.484375 -1.800781 1.984375 -2.09375 L 4.328125 -8.71875 C 5.441406 -8.113281 6.804688 -7.570312 8.421875 -7.09375 C 10.046875 -6.613281 12.035156 -6.375 14.390625 -6.375 Z M 14.390625 -6.375 "/></g></g></g><g fill="#000000" fill-opacity="1"><g transform="translate(290.139653, 194.148986)"><g><path d="M 4.28125 -37.09375 L 12.625 -37.09375 L 12.625 0 L 4.28125 0 Z M 4.28125 -37.09375 "/></g></g></g><g fill="#000000" fill-opacity="1"><g transform="translate(102.63109, 248.540549)"><g><path d="M 1.027344 0 L 10.980469 0 L 10.980469 -2.070312 L 3.535156 -2.070312 L 3.535156 -13.46875 L 1.027344 -13.46875 Z M 1.027344 0 "/></g></g></g><g fill="#000000" fill-opacity="1"><g transform="translate(119.500779, 248.540549)"><g><path d="M 9.023438 0.476562 C 14.039062 0.476562 17.402344 -2.414062 17.402344 -6.726562 C 17.402344 -11.039062 14.039062 -13.945312 9.023438 -13.945312 C 4.027344 -13.945312 0.664062 -11.039062 0.664062 -6.726562 C 0.664062 -2.414062 4.027344 0.476562 9.023438 0.476562 Z M 9.023438 -1.578125 C 5.527344 -1.578125 3.171875 -3.648438 3.171875 -6.726562 C 3.171875 -9.800781 5.527344 -11.875 9.023438 -11.875 C 12.519531 -11.875 14.875 -9.800781 14.875 -6.726562 C 14.875 -3.648438 12.519531 -1.578125 9.023438 -1.578125 Z M 9.023438 -1.578125 "/></g></g></g><g fill="#000000" fill-opacity="1"><g transform="translate(143.266058, 248.540549)"><g><path d="M 9.023438 0.476562 C 14.039062 0.476562 17.402344 -2.414062 17.402344 -6.726562 C 17.402344 -11.039062 14.039062 -13.945312 9.023438 -13.945312 C 4.027344 -13.945312 0.664062 -11.039062 0.664062 -6.726562 C 0.664062 -2.414062 4.027344 0.476562 9.023438 0.476562 Z M 9.023438 -1.578125 C 5.527344 -1.578125 3.171875 -3.648438 3.171875 -6.726562 C 3.171875 -9.800781 5.527344 -11.875 9.023438 -11.875 C 12.519531 -11.875 14.875 -9.800781 14.875 -6.726562 C 14.875 -3.648438 12.519531 -1.578125 9.023438 -1.578125 Z M 9.023438 -1.578125 "/></g></g></g><g fill="#000000" fill-opacity="1"><g transform="translate(167.031338, 248.540549)"><g><path d="M 1.027344 0 L 3.535156 0 L 3.535156 -4.671875 L 5.472656 -6.382812 L 10.449219 0 L 13.546875 0 L 7.21875 -7.996094 L 13.335938 -13.46875 L 10.105469 -13.46875 L 3.550781 -7.523438 L 3.535156 -7.542969 L 3.535156 -13.46875 L 1.027344 -13.46875 Z M 1.027344 0 "/></g></g></g><g fill="#000000" fill-opacity="1"><g transform="translate(186.351528, 248.540549)"><g/></g></g><g fill="#000000" fill-opacity="1"><g transform="translate(197.142459, 248.540549)"><g><path d="M 1.027344 0 L 3.515625 0 L 3.515625 -13.46875 L 1.027344 -13.46875 Z M 1.027344 0 "/></g></g></g><g fill="#000000" fill-opacity="1"><g transform="translate(207.382505, 248.540549)"><g><path d="M 5.339844 0 L 7.847656 0 L 7.847656 -11.398438 L 12.996094 -11.398438 L 12.996094 -13.46875 L 0.171875 -13.46875 L 0.171875 -11.398438 L 5.339844 -11.398438 Z M 5.339844 0 "/></g></g></g><g fill="#000000" fill-opacity="1"><g transform="translate(226.265782, 248.540549)"><g/></g></g><g fill="#000000" fill-opacity="1"><g transform="translate(237.056713, 248.540549)"><g><path d="M 7.597656 0.457031 C 11.703125 0.457031 14.363281 -1.824219 14.363281 -5.625 L 14.363281 -13.46875 L 11.855469 -13.46875 L 11.855469 -5.679688 C 11.855469 -3.117188 10.183594 -1.632812 7.617188 -1.632812 C 5.035156 -1.632812 3.363281 -3.171875 3.363281 -5.679688 L 3.363281 -13.46875 L 0.835938 -13.46875 L 0.835938 -5.625 C 0.835938 -1.824219 3.496094 0.457031 7.597656 0.457031 Z M 7.597656 0.457031 "/></g></g></g><g fill="#000000" fill-opacity="1"><g transform="translate(257.953578, 248.540549)"><g><path d="M 1.027344 0 L 3.515625 0 L 3.515625 -4.789062 L 8.851562 -4.789062 C 12.082031 -4.789062 14.058594 -6.460938 14.078125 -9.101562 C 14.078125 -11.777344 12.101562 -13.46875 8.871094 -13.46875 L 1.027344 -13.46875 Z M 3.515625 -6.648438 L 3.515625 -11.609375 L 8.414062 -11.609375 C 10.371094 -11.609375 11.570312 -10.636719 11.570312 -9.117188 C 11.570312 -7.597656 10.371094 -6.648438 8.414062 -6.648438 Z M 3.515625 -6.648438 "/></g></g></g></svg>